#!OML:ASF E:/inclinewalkrobotboard/Project1/Captureday1/Session1/subject1.ASF
:FULLY-SPECIFIED
:DEGREES
88
root 0 0 0 13.515901428830578 33.626125065096936 0.9479126971284804
lowerback 14.994419252774797 3.993002917389198 3.3057351752826563
upperback -3.264449423845299 5.34699352306592 2.239330618392188
thorax -11.388478472307208 2.5954039946046814 0.010958427096975476
lowerneck -16.374455133885135 -8.36119575942518 -1.630434279071916
upperneck 26.09290127496602 -14.459817802393847 6.906040235775035
head 11.195916118951272 -5.96905504283636 1.1013199328173027
rclavicle -9.140352728754414E-16 9.593978185864353E-15
rhumerus -8.062404327777557 7.60142305314076 -77.42317637679756
rradius 20.81841139369822
rwrist 4.320271159893366
rhand -24.16619116501972 -18.109834512052636
rfingers 7.125019999999947
rthumb 2.3605348416321927 -48.50962287247568
lclavicle 3.791178893992859E-15 8.703489102851762E-15
lhumerus -47.194661724053454 19.8463555998554 65.69387735422654
lradius 51.266189383287454
lwrist -12.775074876074402
lhand -14.407845032474484 16.857981792343733
lfingers 7.125019999999907
lthumb 11.754164602912425 46.11395732936804
rfemur -14.241168616593335 7.008801341382544 39.329587317016845
rtibia 18.47723368802913
rfoot -2.914561190769934 -13.973975506863749
rtoes -51.391277765232566
lfemur -14.712848157514404 -33.44162471592681 -19.769425216787464
ltibia -7.9104406921169215
lfoot -45.00487533963382 9.071925008412396
ltoes -31.00057603376465
89
root 0 0 0 13.6385037802996 33.20969144410045 1.1139936605177234
lowerback 14.75842101573485 4.032959453781954 3.257191591439585
upperback -3.3619987591267435 5.394603191840746 2.1074820592154953
thorax -11.383460010081551 2.6131061573069787 -0.13923177215170512
lowerneck -16.54780222782311 -8.278784823410854 -1.7329148075742244
upperneck 25.980914332061555 -14.298473102887097 6.63755317396399
head 11.154553962179534 -5.929968696266245 1.0401840272201834
rclavicle -2.1534099248937543E-15 9.042878101397143E-15
rhumerus -8.282075956096559 8.377475346911147 -78.14028279559724
rradius 20.019350207995636
rwrist 5.653531946524868
rhand -23.9587980320793 -17.04983184279494
rfingers 7.125019999999946
rthumb 2.5665452289614503 -47.43426519746462
lclavicle 3.0592234290011043E-15 8.64052892234318E-15
lhumerus -47.29548655593038 20.36305716571679 65.52754710942335
lradius 50.94821678001999
lwrist -12.539788451617746
lhand -14.04163510850764 16.977603680489306
lfingers 7.125019999999913
lthumb 12.108939048325261 46.217634190081576
rfemur -12.684781430314022 9.302036388223359 38.753177154854
rtibia 14.296753884417232
rfoot -1.182271768198671 -16.54603185173828
rtoes -50.88979486732216
lfemur -14.130743671191969 -33.61203900178544 -20.051185816855437
ltibia -8.093734300663044
lfoot -44.86078051457845 9.0159100582449
ltoes -30.822464179806452
90
root 0 0 0 13.779631584714423 33.17125332001087 1.236878624261275
lowerback 14.551547320455622 4.116230939234425 3.392469318236029
upperback -3.448396206737602 5.521739007280028 2.019989253588731
thorax -11.376458432687386 2.6615769922428463 -0.35238603936257995
lowerneck -16.657327381047395 -8.238304770194306 -1.877904223316384
upperneck 25.82181339684644 -14.15265499234285 6.290107250057945
head 11.098053847240015 -5.911440680167649 0.9574886469235966
rclavicle -3.665297691670013E-15 8.149194162114701E-15
rhumerus -9.277637251534127 8.922227724871103 -78.78517984223548
rradius 19.07698637154879
rwrist 7.177453965146075
rhand -23.573315381938365 -15.856938589419862
rfingers 7.125019999999946
rthumb 2.9433934441427123 -46.21065853012217
lclavicle 2.3071735256302026E-15 8.373438757841589E-15
lhumerus -47.45704476300235 20.576890356458513 65.51503507256709
lradius 50.705653124785464
lwrist -12.364893130116958
lhand -13.784414964790603 17.07531352475752
lfingers 7.125019999999917
lthumb 12.358617818985863 46.30394644363598
rfemur -10.32278881590256 12.530259240928201 38.04480594877819
rtibia 8.30802941293455
rfoot 0.7205301579375671 -19.921292169939576
rtoes -50.129416262475246
lfemur -13.615045322495561 -33.77294394706005 -20.354655848224446
ltibia -8.233660303897523
lfoot -44.62221435716796 8.837890609868056
ltoes -30.66628727680937
91
root 0 0 0 11.824809674230096 27.01678979691423 0.6568418763780568
lowerback 12.07887741452127 2.9825172548687418 2.4561447757035335
upperback -4.342369100615001 3.9439183072772157 1.7298759115921887
thorax -10.88356098733524 1.9350747181329413 0.16518322741052172
lowerneck -14.295174435408176 -7.781591668276399 -0.5615725080912712
upperneck 28.239690243883565 -13.703677193623424 6.754787332014494
head 11.833294356641538 -5.431604089900547 0.9533298383190507
rclavicle -8.985000340254098E-16 3.6387444969683E-15
rhumerus -14.665303924829235 9.209400306629291 -78.40926807346278
rradius 20.63742513107374
rwrist 6.9306751539659
rhand -22.81457636883682 -14.910685375224956
rfingers 7.125019999999954
rthumb 3.703279481412146 -45.20677804062398
lclavicle 4.743409089903713E-15 3.718024802150186E-15
lhumerus -48.39206415520306 21.03778519017458 65.54414208945052
lradius 49.82309829551886
lwrist -12.591000842890335
lhand -13.481279320330362 17.05734605953447
lfingers 7.125019999999923
lthumb 12.65577653531756 46.25559769172743
rfemur -4.61661154604724 18.14358691434707 37.04248014277307
rtibia -2.972526334477589
rfoot 2.6894288790823317 -25.32025037063029
rtoes -48.589336015284495
lfemur -15.839494577749381 -33.25174015686774 -19.252330157085062
ltibia -7.8336217545689735
lfoot -44.85491987141331 8.837508549629918
ltoes -31.677301627480745
92
root 0 0 0 14.442932807564148 31.78013628109148 1.3406903974176525
lowerback 14.714626143118451 4.0027851578744285 3.6194129570109
upperback -3.4184451650775984 5.390079081970147 2.029099464347302
thorax -11.458765526510145 2.5803667365959813 -0.49926075838108996
lowerneck -16.78343322964652 -7.607347402205841 -1.3701296419351356
upperneck 25.50898860197632 -13.200850645930537 5.451150373377443
head 10.988920399827006 -5.518623629926043 0.6856837677715175
rclavicle -5.760074131765342E-15 5.52145774890028E-15
rhumerus -17.43207726041516 10.680991209440123 -79.60005537601788
rradius 21.363296726661254
rwrist 7.285084007218334
rhand -22.16887824527705 -12.9009167475206
rfingers 7.125019999999951
rthumb 4.310619351064229 -43.141863962938686
lclavicle 2.815336347463136E-15 7.674240697461262E-15
lhumerus -47.687055703554044 21.102347653668858 65.22653767375486
lradius 50.02124161461187
lwrist -12.498824253797238
lhand -13.411666621813286 17.064787322980592
lfingers 7.125019999999923
lthumb 12.719394233253928 46.27221170207704
rfemur -6.188348572993122 19.928367102895344 36.49239543469947
rtibia -4.317861845590279
rfoot 3.4712426692850507 -26.829241683232404
rtoes -47.62399168696556
lfemur -14.140607657669133 -33.56435114286901 -20.433563208004763
ltibia -7.852902077389558
lfoot -43.91767661961482 8.121053719075649
ltoes -31.027439152983725
93
root 0 0 0 14.632323087133916 34.29695956679891 1.4829022065017852
lowerback 14.65869688472948 4.36836383858764 4.116411586555814
upperback -3.422657414879102 5.924593203012611 2.0618701931767713
thorax -11.424954922517204 2.817112865316036 -0.8053992057908261
lowerneck -16.930846948071224 -8.183514642369799 -2.236739365317736
upperneck 25.003469367525362 -13.787044897935 5.252746547448718
head 10.842604732956097 -5.904378406992806 0.6886589062651205
rclavicle -7.474125500133796E-15 4.763925684658862E-15
rhumerus -17.670812256481394 9.791918556613707 -79.64073373269801
rradius 17.775894974182023
rwrist 10.851437759619657
rhand -21.62995357903991 -11.965281443137334
rfingers 7.125019999999952
rthumb 4.834377514181357 -42.16151730981866
lclavicle 2.8165160412623177E-15 7.975194609645282E-15
lhumerus -47.49948150303325 21.448721439037953 64.84659555490128
lradius 49.72090135683351
lwrist -12.804473975828202
lhand -13.295660938381022 16.92744204583495
lfingers 7.125019999999924
lthumb 12.830091106702259 46.126942487968
rfemur -7.101689323761575 20.40514257378608 36.54740190078796
rtibia -4.1277638174668105
rfoot 2.710911489029616 -26.783803915855255
rtoes -47.011011931767236
lfemur -15.647056132901056 -33.007006052371864 -20.258286078708927
ltibia -6.898291988502379
lfoot -43.08330944549894 7.128435787093071
ltoes -31.860087139813007
94
root 0 0 0 14.808997241053858 35.054977195950734 1.554446973773286
lowerback 14.573625130151921 4.491392439730905 4.406027844620927
upperback -3.462453956120736 6.118352300248957 2.087898168939325
thorax -11.417989541744355 2.897757395829414 -0.9642796697468754
lowerneck -16.922153325325894 -8.297654754531987 -2.508423139602889
upperneck 24.817693769718684 -13.805936040449925 4.882231026784758
head 10.7883114362336 -5.979770299511271 0.5982451938174795
rclavicle -8.210774465049831E-15 4.02864914458812E-15
rhumerus -20.303060695701248 10.020002440346579 -79.78861983257235
rradius 17.556862627526527
rwrist 12.256734255206048
rhand -20.974743025962262 -10.456742443984735
rfingers 7.125019999999954
rthumb 5.474470554911476 -40.598290958785185
lclavicle 3.4726056080806535E-15 8.428999309587278E-15
lhumerus -47.26795281037649 21.987232107266976 64.37422547541722
lradius 49.42655355812087
lwrist -13.08071451487897
lhand -13.16467992576037 16.793102735437312
lfingers 7.1250199999999255
lthumb 12.954795924815514 45.984011600378295
rfemur -6.995718432733634 20.33248098174635 36.471064720339285
rtibia -4.1402719697526535
rfoot 3.0557285562825633 -26.897632888249532
rtoes -46.94086709435804
lfemur -16.64529944857133 -32.431203108905976 -20.07952952199799
ltibia -6.128447234788837
lfoot -42.44568241046525 6.720789134013112
ltoes -32.67255396069183
95
root 0 0 0 15.099870137211642 34.704747332291696 1.6566157510885744
lowerback 14.605784725200714 4.502341700313031 4.548497292975837
upperback -3.4677406641798263 6.1439023839666564 2.0796329869497723
thorax -11.450888283056976 2.900404784403962 -1.0747127533387004
lowerneck -17.01196650551378 -8.124949245665023 -2.4578876824189413
upperneck 24.67958216219818 -13.492210370609799 4.44458093519013
head 10.74440176563049 -5.877543665543599 0.4683221545595331
rclavicle -9.074021764882066E-15 3.2010563350360264E-15
rhumerus -25.279380691798313 11.007351058274182 -80.3160057211803
rradius 19.759233980363412
rwrist 12.52736978104376
rhand -20.03687315345425 -8.463220352647188
rfingers 7.125019999999961
rthumb 6.388997389546945 -38.532169542689815
lclavicle 4.2719212112264586E-15 8.636881717470066E-15
lhumerus -47.117806382671304 22.338070236957947 64.06754309183212
lradius 49.278851675838716
lwrist -13.280688775409736
lhand -13.135160695799584 16.69596038613819
lfingers 7.1250199999999255
lthumb 12.981818219036047 45.88391968397024
rfemur -6.855281064710548 20.371019507639538 36.337060732128506
rtibia -4.322349430149412
rfoot 3.4954045739645743 -27.138135187867224
rtoes -46.75870855101261
lfemur -17.560402036369236 -31.890310333978864 -19.939705942358984
ltibia -5.377891754588724
lfoot -41.842611399202795 6.29997485476818
ltoes -33.408522141356514
